<svg viewBox="0 0 1600 1200" xmlns="http://www.w3.org/2000/svg">
  <!-- Background -->
  <rect width="1600" height="1200" fill="#f8f9fa"/>
  
  <!-- Title -->
  <text x="800" y="30" text-anchor="middle" font-family="Arial, sans-serif" font-size="20" font-weight="bold" fill="#2c3e50">
    Integrated System DSD - Complete Database Schema
  </text>
  
  <!-- Section Headers -->
  <rect x="50" y="50" width="500" height="25" fill="#2196f3" opacity="0.3"/>
  <text x="60" y="67" font-weight="bold" font-size="14" fill="#1976d2">AVIATION SYSTEM TABLES</text>
  
  <rect x="600" y="50" width="500" height="25" fill="#4caf50" opacity="0.3"/>
  <text x="610" y="67" font-weight="bold" font-size="14" fill="#388e3c">WAREHOUSE SYSTEM TABLES</text>
  
  <rect x="1150" y="50" width="400" height="25" fill="#ff5722" opacity="0.3"/>
  <text x="1160" y="67" font-weight="bold" font-size="14" fill="#d84315">INTEGRATION TABLES</text>
  
  <!-- AVIATION SYSTEM TABLES -->
  
  <!-- Producer Table -->
  <g id="producer-table">
    <rect x="50" y="100" width="150" height="120" fill="white" stroke="#1976d2" stroke-width="2"/>
    <rect x="50" y="100" width="150" height="25" fill="#1976d2"/>
    <text x="125" y="117" text-anchor="middle" font-weight="bold" font-size="12" fill="white">Producer</text>
    <text x="55" y="135" font-size="9" font-weight="bold" fill="#333">🔑 producer_id: INT</text>
    <text x="55" y="147" font-size="9" fill="#333">pname: VARCHAR(50)</text>
    <text x="55" y="159" font-size="9" fill="#333">est_date: DATE</text>
    <text x="55" y="171" font-size="9" fill="#333">owner: VARCHAR(50)</text>
  </g>
  
  <!-- Hub Table -->
  <g id="hub-table">
    <rect x="220" y="100" width="150" height="120" fill="white" stroke="#1976d2" stroke-width="2"/>
    <rect x="220" y="100" width="150" height="25" fill="#1976d2"/>
    <text x="295" y="117" text-anchor="middle" font-weight="bold" font-size="12" fill="white">Hub</text>
    <text x="225" y="135" font-size="9" font-weight="bold" fill="#333">🔑 hub_id: INT</text>
    <text x="225" y="147" font-size="9" fill="#333">name: VARCHAR(50)</text>
    <text x="225" y="159" font-size="9" fill="#333">location: VARCHAR(80)</text>
    <text x="225" y="171" font-size="9" fill="#333">iata_code: VARCHAR(10)</text>
    <text x="225" y="183" font-size="9" fill="#333">capacity: INT</text>
  </g>
  
  <!-- Operator Table -->
  <g id="operator-table">
    <rect x="390" y="100" width="150" height="135" fill="white" stroke="#1976d2" stroke-width="2"/>
    <rect x="390" y="100" width="150" height="25" fill="#1976d2"/>
    <text x="465" y="117" text-anchor="middle" font-weight="bold" font-size="12" fill="white">Operator</text>
    <text x="395" y="135" font-size="9" font-weight="bold" fill="#333">🔑 operator_id: INT</text>
    <text x="395" y="147" font-size="9" fill="#333">name: VARCHAR(50)</text>
    <text x="395" y="159" font-size="9" fill="#333">type: VARCHAR(30)</text>
    <text x="395" y="171" font-size="9" fill="#333">fleet_size: INT</text>
    <text x="395" y="183" font-size="9" font-weight="bold" fill="#d84315">🔗 hub_id: INT (FK)</text>
  </g>
  
  <!-- Hangar Table (Enhanced) -->
  <g id="hangar-table">
    <rect x="50" y="280" width="170" height="135" fill="white" stroke="#1976d2" stroke-width="2"/>
    <rect x="50" y="280" width="170" height="25" fill="#1976d2"/>
    <text x="135" y="297" text-anchor="middle" font-weight="bold" font-size="12" fill="white">Hangar (Enhanced)</text>
    <text x="55" y="315" font-size="9" font-weight="bold" fill="#333">🔑 hangar_id: INT</text>
    <text x="55" y="327" font-size="9" fill="#333">location: VARCHAR(80)</text>
    <text x="55" y="339" font-size="9" fill="#333">name: VARCHAR(50)</text>
    <text x="55" y="351" font-size="9" font-weight="bold" fill="#ff5722">🔗 warehouse_id: INT (FK)</text>
    <text x="55" y="375" font-size="8" font-weight="bold" fill="#d84315">↑ INTEGRATION</text>
    <text x="55" y="387" font-size="8" fill="#d84315">Links to warehouse</text>
    <text x="55" y="399" font-size="8" fill="#d84315">for facility sharing</text>
  </g>
  
  <!-- Plane Table -->
  <g id="plane-table">
    <rect x="240" y="280" width="170" height="180" fill="white" stroke="#1976d2" stroke-width="2"/>
    <rect x="240" y="280" width="170" height="25" fill="#1976d2"/>
    <text x="325" y="297" text-anchor="middle" font-weight="bold" font-size="12" fill="white">Plane</text>
    <text x="245" y="315" font-size="9" font-weight="bold" fill="#333">🔑 plane_id: INT</text>
    <text x="245" y="327" font-size="9" fill="#333">model: VARCHAR(25)</text>
    <text x="245" y="339" font-size="9" fill="#333">production_date: DATE</text>
    <text x="245" y="351" font-size="9" fill="#333">capacity: INT</text>
    <text x="245" y="363" font-size="9" fill="#333">max_altitude: INT</text>
    <text x="245" y="375" font-size="9" fill="#333">max_distance: INT</text>
    <text x="245" y="387" font-size="9" fill="#333">status: VARCHAR(30)</text>
    <text x="245" y="399" font-size="9" font-weight="bold" fill="#d84315">🔗 producer_id: INT (FK)</text>
    <text x="245" y="411" font-size="9" font-weight="bold" fill="#d84315">🔗 hangar_id: INT (FK)</text>
    <text x="245" y="423" font-size="9" font-weight="bold" fill="#d84315">🔗 operator_id: INT (FK)</text>
  </g>
  
  <!-- Pilot Table (Enhanced) -->
  <g id="pilot-table">
    <rect x="430" y="280" width="170" height="155" fill="white" stroke="#1976d2" stroke-width="2"/>
    <rect x="430" y="280" width="170" height="25" fill="#1976d2"/>
    <text x="515" y="297" text-anchor="middle" font-weight="bold" font-size="12" fill="white">Pilot (Enhanced)</text>
    <text x="435" y="315" font-size="9" font-weight="bold" fill="#333">🔑 pilot_id: INT</text>
    <text x="435" y="327" font-size="9" fill="#333">name: VARCHAR(50)</text>
    <text x="435" y="339" font-size="9" fill="#333">license_num: VARCHAR(30)</text>
    <text x="435" y="351" font-size="9" fill="#333">rank: VARCHAR(20)</text>
    <text x="435" y="363" font-size="9" fill="#333">experience: INT</text>
    <text x="435" y="375" font-size="9" font-weight="bold" fill="#d84315">🔗 operator_id: INT (FK)</text>
    <text x="435" y="387" font-size="9" font-weight="bold" fill="#ff5722">🔗 employee_id: INT (FK)</text>
    <text x="435" y="405" font-size="8" font-weight="bold" fill="#d84315">↑ INTEGRATION</text>
    <text x="435" y="417" font-size="8" fill="#d84315">Cross-reference to</text>
    <text x="435" y="429" font-size="8" fill="#d84315">warehouse employee</text>
  </g>
  
  <!-- Pilot_Plane Table -->
  <g id="pilotplane-table">
    <rect x="50" y="470" width="170" height="120" fill="#fff9c4" stroke="#f57f17" stroke-width="2"/>
    <rect x="50" y="470" width="170" height="25" fill="#f57f17"/>
    <text x="135" y="487" text-anchor="middle" font-weight="bold" font-size="12" fill="white">Pilot_Plane</text>
    <text x="55" y="505" font-size="9" fill="#333">assignment_date: DATE</text>
    <text x="55" y="517" font-size="9" font-weight="bold" fill="#d84315">🔗 plane_id: INT (FK)</text>
    <text x="55" y="529" font-size="9" font-weight="bold" fill="#d84315">🔗 pilot_id: INT (FK)</text>
    <text x="55" y="541" font-size="9" font-weight="bold" fill="#333">🔑 PK: (plane_id, pilot_id)</text>
    <text x="55" y="565" font-size="8" fill="#666">M:N Pilot-Plane</text>
    <text x="55" y="577" font-size="8" fill="#666">assignments</text>
  </g>
  
  <!-- WAREHOUSE SYSTEM TABLES -->
  
  <!-- Warehouse Table -->
  <g id="warehouse-table">
    <rect x="620" y="100" width="150" height="120" fill="white" stroke="#4caf50" stroke-width="2"/>
    <rect x="620" y="100" width="150" height="25" fill="#4caf50"/>
    <text x="695" y="117" text-anchor="middle" font-weight="bold" font-size="12" fill="white">Warehouse</text>
    <text x="625" y="135" font-size="9" font-weight="bold" fill="#333">🔑 warehouse_id: INT</text>
    <text x="625" y="147" font-size="9" fill="#333">location: VARCHAR(100)</text>
    <text x="625" y="159" font-size="9" fill="#333">capacity: INT</text>
    <text x="625" y="171" font-size="9" fill="#333">open_date: DATE</text>
  </g>
  
  <!-- Employee Table -->
  <g id="employee-table">
    <rect x="790" y="100" width="150" height="135" fill="white" stroke="#4caf50" stroke-width="2"/>
    <rect x="790" y="100" width="150" height="25" fill="#4caf50"/>
    <text x="865" y="117" text-anchor="middle" font-weight="bold" font-size="12" fill="white">employee</text>
    <text x="795" y="135" font-size="9" font-weight="bold" fill="#333">🔑 employee_id: INT</text>
    <text x="795" y="147" font-size="9" fill="#333">name: VARCHAR(100)</text>
    <text x="795" y="159" font-size="9" fill="#333">role: VARCHAR(50)</text>
    <text x="795" y="171" font-size="9" fill="#333">start_date: DATE</text>
    <text x="795" y="183" font-size="9" fill="#333">last_training: DATE</text>
  </g>
  
  <!-- Part Table -->
  <g id="part-table">
    <rect x="620" y="280" width="150" height="105" fill="white" stroke="#4caf50" stroke-width="2"/>
    <rect x="620" y="280" width="150" height="25" fill="#4caf50"/>
    <text x="695" y="297" text-anchor="middle" font-weight="bold" font-size="12" fill="white">Part</text>
    <text x="625" y="315" font-size="9" font-weight="bold" fill="#333">🔑 part_id: INT</text>
    <text x="625" y="327" font-size="9" fill="#333">name: VARCHAR(100)</text>
    <text x="625" y="339" font-size="9" fill="#333">last_update: DATE</text>
  </g>
  
  <!-- Supplier Table -->
  <g id="supplier-table">
    <rect x="790" y="280" width="150" height="105" fill="white" stroke="#4caf50" stroke-width="2"/>
    <rect x="790" y="280" width="150" height="25" fill="#4caf50"/>
    <text x="865" y="297" text-anchor="middle" font-weight="bold" font-size="12" fill="white">supplier</text>
    <text x="795" y="315" font-size="9" font-weight="bold" fill="#333">🔑 supplier_id: INT</text>
    <text x="795" y="327" font-size="9" fill="#333">name: VARCHAR(100)</text>
    <text x="795" y="339" font-size="9" fill="#333">phone: VARCHAR(20)</text>
  </g>
  
  <!-- Customer Table -->
  <g id="customer-table">
    <rect x="960" y="100" width="150" height="135" fill="white" stroke="#4caf50" stroke-width="2"/>
    <rect x="960" y="100" width="150" height="25" fill="#4caf50"/>
    <text x="1035" y="117" text-anchor="middle" font-weight="bold" font-size="12" fill="white">Costumer</text>
    <text x="965" y="135" font-size="9" font-weight="bold" fill="#333">🔑 costumer_id: INT</text>
    <text x="965" y="147" font-size="9" fill="#333">phone: VARCHAR(20)</text>
    <text x="965" y="159" font-size="9" fill="#333">email: VARCHAR(100)</text>
    <text x="965" y="171" font-size="9" fill="#333">registration_date: DATE</text>
  </g>
  
  <!-- Train Table -->
  <g id="train-table">
    <rect x="960" y="280" width="150" height="135" fill="white" stroke="#4caf50" stroke-width="2"/>
    <rect x="960" y="280" width="150" height="25" fill="#4caf50"/>
    <text x="1035" y="297" text-anchor="middle" font-weight="bold" font-size="12" fill="white">Train</text>
    <text x="965" y="315" font-size="9" font-weight="bold" fill="#333">🔑 train_id: INT</text>
    <text x="965" y="327" font-size="9" fill="#333">model: VARCHAR(50)</text>
    <text x="965" y="339" font-size="9" fill="#333">year: INT</text>
    <text x="965" y="351" font-size="9" fill="#333">last_check: DATE</text>
    <text x="965" y="363" font-size="9" fill="#333">next_check: DATE</text>
    <text x="965" y="375" font-size="9" font-weight="bold" fill="#d84315">🔗 warehouse_id: INT (FK)</text>
  </g>
  
  <!-- Warehouse Relationship Tables -->
  <g id="worksat-table">
    <rect x="620" y="450" width="180" height="120" fill="#fff9c4" stroke="#f57f17" stroke-width="2"/>
    <rect x="620" y="450" width="180" height="25" fill="#f57f17"/>
    <text x="710" y="467" text-anchor="middle" font-weight="bold" font-size="12" fill="white">WorksAt</text>
    <text x="625" y="485" font-size="9" font-weight="bold" fill="#d84315">🔗 warehouse_id: INT (FK)</text>
    <text x="625" y="497" font-size="9" font-weight="bold" fill="#d84315">🔗 employee_id: INT (FK)</text>
    <text x="625" y="509" font-size="9" font-weight="bold" fill="#333">🔑 PK: (warehouse_id, employee_id)</text>
  </g>
  
  <g id="warehouseparts-table">
    <rect x="820" y="450" width="180" height="135" fill="#fff9c4" stroke="#f57f17" stroke-width="2"/>
    <rect x="820" y="450" width="180" height="25" fill="#f57f17"/>
    <text x="910" y="467" text-anchor="middle" font-weight="bold" font-size="12" fill="white">WarehouseParts</text>
    <text x="825" y="485" font-size="9" fill="#333">wQuantity: INT</text>
    <text x="825" y="497" font-size="9" fill="#333">last_updated: DATE</text>
    <text x="825" y="509" font-size="9" font-weight="bold" fill="#d84315">🔗 part_id: INT (FK)</text>
    <text x="825" y="521" font-size="9" font-weight="bold" fill="#d84315">🔗 warehouse_id: INT (FK)</text>
    <text x="825" y="533" font-size="9" font-weight="bold" fill="#333">🔑 PK: (part_id, warehouse_id)</text>
  </g>
  
  <g id="supplierparts-table">
    <rect x="620" y="620" width="180" height="135" fill="#fff9c4" stroke="#f57f17" stroke-width="2"/>
    <rect x="620" y="620" width="180" height="25" fill="#f57f17"/>
    <text x="710" y="637" text-anchor="middle" font-weight="bold" font-size="12" fill="white">SupplierParts</text>
    <text x="625" y="655" font-size="9" fill="#333">price: DECIMAL(10,2)</text>
    <text x="625" y="667" font-size="9" fill="#333">sQuantity: INT</text>
    <text x="625" y="679" font-size="9" font-weight="bold" fill="#d84315">🔗 supplier_id: INT (FK)</text>
    <text x="625" y="691" font-size="9" font-weight="bold" fill="#d84315">🔗 part_id: INT (FK)</text>
    <text x="625" y="703" font-size="9" font-weight="bold" fill="#333">🔑 PK: (supplier_id, part_id)</text>
  </g>
  
  <!-- INTEGRATION TABLES -->
  
  <!-- Aircraft_Parts Table -->
  <g id="aircraftparts-table">
    <rect x="1200" y="100" width="200" height="170" fill="white" stroke="#ff5722" stroke-width="3"/>
    <rect x="1200" y="100" width="200" height="30" fill="#ff5722"/>
    <text x="1300" y="120" text-anchor="middle" font-weight="bold" font-size="12" fill="white">Aircraft_Parts</text>
    <text x="1205" y="140" font-size="9" font-weight="bold" fill="#333">🔑 aircraft_part_id: INT (AI)</text>
    <text x="1205" y="152" font-size="9" font-weight="bold" fill="#d84315">🔗 plane_id: INT (FK)</text>
    <text x="1205" y="164" font-size="9" font-weight="bold" fill="#d84315">🔗 part_id: INT (FK)</text>
    <text x="1205" y="176" font-size="9" fill="#333">quantity_used: INT</text>
    <text x="1205" y="188" font-size="9" fill="#333">installation_date: DATE</text>
    <text x="1205" y="200" font-size="9" fill="#333">next_maintenance_date: DATE</text>
    <text x="1205" y="212" font-size="9" fill="#333">status: VARCHAR(30)</text>
    <text x="1205" y="230" font-size="8" font-weight="bold" fill="#d84315">BRIDGE TABLE</text>
    <text x="1205" y="242" font-size="8" fill="#d84315">Links aircraft to parts</text>
    <text x="1205" y="254" font-size="8" fill="#d84315">for maintenance tracking</text>
  </g>
  
  <!-- Maintenance_Record Table -->
  <g id="maintenance-table">
    <rect x="1200" y="300" width="220" height="200" fill="white" stroke="#ff5722" stroke-width="3"/>
    <rect x="1200" y="300" width="220" height="30" fill="#ff5722"/>
    <text x="1310" y="320" text-anchor="middle" font-weight="bold" font-size="12" fill="white">Maintenance_Record</text>
    <text x="1205" y="340" font-size="9" font-weight="bold" fill="#333">🔑 maintenance_id: INT (AI)</text>
    <text x="1205" y="352" font-size="9" font-weight="bold" fill="#d84315">🔗 plane_id: INT (FK)</text>
    <text x="1205" y="364" font-size="9" font-weight="bold" fill="#d84315">🔗 employee_id: INT (FK)</text>
    <text x="1205" y="376" font-size="9" font-weight="bold" fill="#d84315">🔗 warehouse_id: INT (FK)</text>
    <text x="1205" y="388" font-size="9" fill="#333">maintenance_date: DATE</text>
    <text x="1205" y="400" font-size="9" fill="#333">maintenance_type: VARCHAR(50)</text>
    <text x="1205" y="412" font-size="9" fill="#333">cost: DECIMAL(10,2)</text>
    <text x="1205" y="424" font-size="9" fill="#333">description: TEXT</text>
    <text x="1205" y="436" font-size="9" fill="#333">completed: BOOLEAN</text>
    <text x="1205" y="455" font-size="8" font-weight="bold" fill="#d84315">SERVICE TRACKING</text>
    <text x="1205" y="467" font-size="8" fill="#d84315">Links warehouse services</text>
    <text x="1205" y="479" font-size="8" fill="#d84315">to aircraft maintenance</text>
  </g>
  
  <!-- Unified_Location Table -->
  <g id="location-table">
    <rect x="1200" y="530" width="180" height="140" fill="white" stroke="#ff5722" stroke-width="3"/>
    <rect x="1200" y="530" width="180" height="30" fill="#ff5722"/>
    <text x="1290" y="550" text-anchor="middle" font-weight="bold" font-size="12" fill="white">Unified_Location</text>
    <text x="1205" y="570" font-size="9" font-weight="bold" fill="#333">🔑 location_id: INT (AI)</text>
    <text x="1205" y="582" font-size="9" fill="#333">location_name: VARCHAR(100)</text>
    <text x="1205" y="594" font-size="9" fill="#333">city: VARCHAR(50)</text>
    <text x="1205" y="606" font-size="9" fill="#333">country: VARCHAR(50)</text>
    <text x="1205" y="618" font-size="9" fill="#333">location_type: VARCHAR(30)</text>
    <text x="1205" y="640" font-size="8" font-weight="bold" fill="#d84315">UNIFIED GEOGRAPHY</text>
    <text x="1205" y="652" font-size="8" fill="#d84315">Standard location data</text>
    <text x="1205" y="664" font-size="8" fill="#d84315">for both systems</text>
  </g>
  
  <!-- Key Integration Connections -->
  
  <!-- Plane to Aircraft_Parts -->
  <line x1="410" y1="350" x2="1200" y2="180" stroke="#ff5722" stroke-width="3" stroke-dasharray="5,5"/>
  <text x="800" y="260" font-size="10" font-weight="bold" fill="#d84315">INTEGRATION</text>
  
  <!-- Part to Aircraft_Parts -->
  <line x1="770" y1="330" x2="1200" y2="190" stroke="#ff5722" stroke-width="3" stroke-dasharray="5,5"/>
  
  <!-- Plane to Maintenance -->
  <line x1="410" y1="380" x2="1200" y2="380" stroke="#ff5722" stroke-width="3" stroke-dasharray="5,5"/>
  
  <!-- Employee to Maintenance -->
  <line x1="940" y1="170" x2="1200" y2="370" stroke="#ff5722" stroke-width="3" stroke-dasharray="5,5"/>
  
  <!-- Warehouse to Maintenance -->
  <line x1="770" y1="160" x2="1200" y2="390" stroke="#ff5722" stroke-width="3" stroke-dasharray="5,5"/>
  
  <!-- Enhanced FK Connections -->
  
  <!-- Hangar to Warehouse -->
  <line x1="220" y1="340" x2="620" y2="160" stroke="#ff5722" stroke-width="2" stroke-dasharray="3,3"/>
  <text x="400" y="240" font-size="9" font-weight="bold" fill="#d84315">ENHANCED FK</text>
  
  <!-- Pilot to Employee -->
  <line x1="600" y1="370" x2="790" y2="170" stroke="#ff5722" stroke-width="2" stroke-dasharray="3,3"/>
  
  <!-- Regular FK Connections (Abbreviated for clarity) -->
  <line x1="370" y1="160" x2="390" y2="160" stroke="#666" stroke-width="1"/>
  <line x1="200" y1="140" x2="240" y2="340" stroke="#666" stroke-width="1"/>
  <line x1="220" y1="340" x2="240" y2="360" stroke="#666" stroke-width="1"/>
  <line x1="540" y1="160" x2="540" y2="280" stroke="#666" stroke-width="1"/>
  
  <!-- Legend -->
  <g id="legend">
    <rect x="50" y="800" width="450" height="200" fill="white" stroke="#ccc" stroke-width="2"/>
    <text x="60" y="820" font-weight="bold" font-size="14" fill="#333">Integrated System Legend:</text>
    
    <!-- Primary/Foreign Key -->
    <text x="60" y="840" font-size="11" fill="#333">🔑 Primary Key (PK)</text>
    <text x="60" y="855" font-size="11" fill="#d84315">🔗 Foreign Key (FK)</text>
    <text x="250" y="855" font-size="11" fill="#333">(AI) = Auto Increment</text>
    
    <!-- Table Types -->
    <rect x="60" y="870" width="40" height="15" fill="white" stroke="#1976d2" stroke-width="2"/>
    <text x="110" y="881" font-size="10" fill="#333">Aviation System</text>
    
    <rect x="60" y="890" width="40" height="15" fill="white" stroke="#4caf50" stroke-width="2"/>
    <text x="110" y="901" font-size="10" fill="#333">Warehouse System</text>
    
    <rect x="60" y="910" width="40" height="15" fill="white" stroke="#ff5722" stroke-width="3"/>
    <text x="110" y="921" font-size="10" fill="#333">Integration Tables</text>
    
    <rect x="60" y="930" width="40" height="15" fill="#fff9c4" stroke="#f57f17" stroke-width="2"/>
    <text x="110" y="941" font-size="10" fill="#333">Relationship Tables</text>
    
    <!-- Connection Types -->
    <line x1="250" y1="877" x2="290" y2="877" stroke="#ff5722" stroke-width="3" stroke-dasharray="5,5"/>
    <text x="300" y="881" font-size="10" fill="#333">Integration Bridge</text>
    
    <line x1="250" y1="897" x2="290" y2="897" stroke="#ff5722" stroke-width="2" stroke-dasharray="3,3"/>
    <text x="300" y="901" font-size="10" fill="#333">Enhanced FK</text>
    
    <line x1="250" y1="917" x2="290" y2="917" stroke="#666" stroke-width="1"/>
    <text x="300" y="921" font-size="10" fill="#333">Standard FK</text>
    
    <text x="60" y="965" font-size="10" fill="#666">This DSD shows the complete integrated system with all tables,</text>
    <text x="60" y="978" font-size="10" fill="#666">relationships, and integration points between the two systems.</text>
  </g>
  
  <!-- Integration Statistics -->
  <g id="integration-stats">
    <rect x="550" y="800" width="300" height="120" fill="#f0f8ff" stroke="#1976d2" stroke-width="1"/>
    <text x="560" y="820" font-weight="bold" font-size="12" fill="#1976d2">Integration Statistics:</text>
    <text x="560" y="840" font-size="11" fill="#333">• 7 Aviation Tables</text>
    <text x="560" y="855" font-size="11" fill="#333">• 7 Warehouse Tables</text>
    <text x="560" y="870" font-size="11" fill="#333">• 3 Integration Tables</text>
    <text x="560" y="885" font-size="11" fill="#333">• 2 Enhanced Tables</text>
    <text x="560" y="900" font-size="11" fill="#333">• 5 Bridge Connections</text>
  </g>
  
  <!-- Benefits Box -->
  <g id="benefits">
    <rect x="900" y="800" width="300" height="140" fill="#f8fff8" stroke="#4caf50" stroke-width="1"/>
    <text x="910" y="820" font-weight="bold" font-size="12" fill="#4caf50">Integration Benefits:</text>
    <text x="910" y="840" font-size="10" fill="#333">✓ Unified maintenance tracking</text>
    <text x="910" y="855" font-size="10" fill="#333">✓ Parts-to-aircraft linking</text>
    <text x="910" y="870" font-size="10" fill="#333">✓ Cross-system personnel</text>
    <text x="910" y="885" font-size="10" fill="#333">✓ Facility co-location</text>
    <text x="910" y="900" font-size="10" fill="#333">✓ Service cost tracking</text>
    <text x="910" y="915" font-size="10" fill="#333">✓ Business intelligence</text>
    <text x="910" y="930" font-size="10" fill="#333">✓ Unified geography</text>
  </g>
</svg>